{
  "accessors": [
    {
      "bufferView": 2,
      "componentType": 5126,
      "count": 91,
      "max": [
        3.793698787689209,
        15.161382675170898,
        16.92481803894043
      ],
      "min": [
        -15.899194717407227,
        -1.4286103248596191,
        -3.7751822471618652
      ],
      "type": "VEC3"
    },
    {
      "bufferView": 2,
      "byteOffset": 1092,
      "componentType": 5126,
      "count": 91,
      "max": [
        1.0,
        1.0,
        6.122422200860456e-05
      ],
      "min": [
        -1.0,
        -1.0,
        -1.0
      ],
      "type": "VEC3"
    },
    {
      "bufferView": 1,
      "componentType": 5126,
      "count": 91,
      "max": [
        0.9998000264167786,
        1.0
      ],
      "min": [
        0.0,
        0.00019997358322143555
      ],
      "type": "VEC2"
    },
    {
      "bufferView": 0,
      "componentType": 5125,
      "count": 102,
      "type": "SCALAR"
    },
    {
      "bufferView": 2,
      "byteOffset": 2184,
      "componentType": 5126,
      "count": 48,
      "max": [
        0.7798131704330444,
        15.176651000976563,
        14.428092956542969
      ],
      "min": [
        -15.910715103149414,
        -1.4583582878112793,
        11.128053665161133
      ],
      "type": "VEC3"
    },
    {
      "bufferView": 2,
      "byteOffset": 2760,
      "componentType": 5126,
      "count": 48,
      "max": [
        1.0,
        1.0,
        1.7339352780254558e-05
      ],
      "min": [
        -1.0,
        -1.0,
        -1.7339352780254558e-05
      ],
      "type": "VEC3"
    },
    {
      "bufferView": 1,
      "byteOffset": 728,
      "componentType": 5126,
      "count": 48,
      "max": [
        0.9648000001907349,
        0.949999988079071
      ],
      "min": [
        0.03999999910593033,
        0.05019998550415039
      ],
      "type": "VEC2"
    },
    {
      "bufferView": 0,
      "byteOffset": 408,
      "componentType": 5125,
      "count": 72,
      "type": "SCALAR"
    },
    {
      "bufferView": 2,
      "byteOffset": 3336,
      "componentType": 5126,
      "count": 42,
      "max": [
        -0.8576608896255493,
        -12.001922607421875,
        -3.6365952491760254
      ],
      "min": [
        -4.612406253814697,
        -15.867904663085938,
        -3.6365952491760254
      ],
      "type": "VEC3"
    },
    {
      "bufferView": 2,
      "byteOffset": 3840,
      "componentType": 5126,
      "count": 42,
      "max": [
        0.0,
        -0.0,
        -1.0
      ],
      "min": [
        0.0,
        -0.0,
        -1.0
      ],
      "type": "VEC3"
    },
    {
      "bufferView": 1,
      "byteOffset": 1112,
      "componentType": 5126,
      "count": 42,
      "max": [
        1.0,
        1.0
      ],
      "min": [
        0.0,
        0.0
      ],
      "type": "VEC2"
    },
    {
      "bufferView": 0,
      "byteOffset": 696,
      "componentType": 5125,
      "count": 150,
      "type": "SCALAR"
    },
    {
      "bufferView": 2,
      "byteOffset": 4344,
      "componentType": 5126,
      "count": 4,
      "max": [
        -22.51072883605957,
        -9.463293075561523,
        -3.3551859855651855
      ],
      "min": [
        -36.43800354003906,
        -23.390579223632813,
        -3.3551859855651855
      ],
      "type": "VEC3"
    },
    {
      "bufferView": 2,
      "byteOffset": 4392,
      "componentType": 5126,
      "count": 4,
      "max": [
        -0.0,
        0.0,
        -1.0
      ],
      "min": [
        -0.0,
        0.0,
        -1.0
      ],
      "type": "VEC3"
    },
    {
      "bufferView": 1,
      "byteOffset": 1448,
      "componentType": 5126,
      "count": 4,
      "max": [
        0.9926244616508484,
        0.8865458369255066
      ],
      "min": [
        -0.0071755521930754185,
        0.2867457866668701
      ],
      "type": "VEC2"
    },
    {
      "bufferView": 0,
      "byteOffset": 1296,
      "componentType": 5125,
      "count": 6,
      "type": "SCALAR"
    },
    {
      "bufferView": 2,
      "byteOffset": 4440,
      "componentType": 5126,
      "count": 42,
      "max": [
        39.14298629760742,
        31.88103485107422,
        -4.7906622886657715
      ],
      "min": [
        -39.14298629760742,
        -32.667823791503906,
        -17.122072219848633
      ],
      "type": "VEC3"
    },
    {
      "bufferView": 2,
      "byteOffset": 4944,
      "componentType": 5126,
      "count": 42,
      "max": [
        0.999928891658783,
        0.9999515414237976,
        0.0
      ],
      "min": [
        -0.00984641257673502,
        -0.9999516010284424,
        -1.0
      ],
      "type": "VEC3"
    },
    {
      "bufferView": 1,
      "byteOffset": 1480,
      "componentType": 5126,
      "count": 42,
      "max": [
        0.9970500469207764,
        0.9922814965248108
      ],
      "min": [
        0.0022497177124023438,
        0.007481396198272705
      ],
      "type": "VEC2"
    },
    {
      "bufferView": 0,
      "byteOffset": 1320,
      "componentType": 5125,
      "count": 42,
      "type": "SCALAR"
    },
    {
      "bufferView": 2,
      "byteOffset": 5448,
      "componentType": 5126,
      "count": 6,
      "max": [
        -30.63703155517578,
        31.81778335571289,
        -4.7906622886657715
      ],
      "min": [
        -31.3978214263916,
        -31.967823028564453,
        -17.122072219848633
      ],
      "type": "VEC3"
    },
    {
      "bufferView": 2,
      "byteOffset": 5520,
      "componentType": 5126,
      "count": 6,
      "max": [
        0.999928891658783,
        -0.011926448903977871,
        -0.0
      ],
      "min": [
        0.999928891658783,
        -0.011926448903977871,
        -0.0
      ],
      "type": "VEC3"
    },
    {
      "bufferView": 1,
      "byteOffset": 1816,
      "componentType": 5126,
      "count": 6,
      "max": [
        0.9970500469207764,
        0.9922814965248108
      ],
      "min": [
        0.0022497219033539295,
        0.007481396198272705
      ],
      "type": "VEC2"
    },
    {
      "bufferView": 0,
      "byteOffset": 1488,
      "componentType": 5125,
      "count": 6,
      "type": "SCALAR"
    },
    {
      "bufferView": 2,
      "byteOffset": 5592,
      "componentType": 5126,
      "count": 814,
      "max": [
        -24.13446807861328,
        33.6984748840332,
        -4.93356466293335
      ],
      "min": [
        -34.32413101196289,
        -33.6984748840332,
        -15.088668823242188
      ],
      "type": "VEC3"
    },
    {
      "bufferView": 2,
      "byteOffset": 15360,
      "componentType": 5126,
      "count": 814,
      "max": [
        1.0,
        1.0,
        1.0
      ],
      "min": [
        -1.0,
        -1.0,
        -1.0
      ],
      "type": "VEC3"
    },
    {
      "bufferView": 1,
      "byteOffset": 1864,
      "componentType": 5126,
      "count": 814,
      "max": [
        0.9993377327919006,
        0.9959790110588074
      ],
      "min": [
        0.0018018014961853623,
        0.0011786818504333496
      ],
      "type": "VEC2"
    },
    {
      "bufferView": 0,
      "byteOffset": 1512,
      "componentType": 5125,
      "count": 1332,
      "type": "SCALAR"
    },
    {
      "bufferView": 2,
      "byteOffset": 25128,
      "componentType": 5126,
      "count": 56,
      "max": [
        12.700002670288086,
        4.806591987609863,
        10.213643074035645
      ],
      "min": [
        -29.700035095214844,
        -18.793405532836914,
        -2.511359453201294
      ],
      "type": "VEC3"
    },
    {
      "bufferView": 2,
      "byteOffset": 25800,
      "componentType": 5126,
      "count": 56,
      "max": [
        1.0,
        1.0,
        -0.0
      ],
      "min": [
        -1.0,
        -0.7071072459220886,
        -4.2146815815158334e-08
      ],
      "type": "VEC3"
    },
    {
      "bufferView": 1,
      "byteOffset": 8376,
      "componentType": 5126,
      "count": 56,
      "max": [
        0.9230795502662659,
        0.9765147566795349
      ],
      "min": [
        0.04437322914600372,
        0.28904056549072266
      ],
      "type": "VEC2"
    },
    {
      "bufferView": 0,
      "byteOffset": 6840,
      "componentType": 5125,
      "count": 84,
      "type": "SCALAR"
    },
    {
      "bufferView": 2,
      "byteOffset": 26472,
      "componentType": 5126,
      "count": 14738,
      "max": [
        1.1255435943603516,
        15.357406616210938,
        -1.4848326444625854
      ],
      "min": [
        -16.200124740600586,
        -4.442665100097656,
        -3.680553913116455
      ],
      "type": "VEC3"
    },
    {
      "bufferView": 2,
      "byteOffset": 203328,
      "componentType": 5126,
      "count": 14738,
      "max": [
        0.9999962449073792,
        0.9999962449073792,
        1.0
      ],
      "min": [
        -0.9999962449073792,
        -0.9999962449073792,
        -1.0
      ],
      "type": "VEC3"
    },
    {
      "bufferView": 1,
      "byteOffset": 8824,
      "componentType": 5126,
      "count": 14738,
      "max": [
        1.0,
        1.0
      ],
      "min": [
        0.0,
        0.0
      ],
      "type": "VEC2"
    },
    {
      "bufferView": 0,
      "byteOffset": 7176,
      "componentType": 5125,
      "count": 17928,
      "type": "SCALAR"
    },
    {
      "bufferView": 2,
      "byteOffset": 380184,
      "componentType": 5126,
      "count": 458,
      "max": [
        39.14298629760742,
        31.88103485107422,
        1.4313664436340332
      ],
      "min": [
        -39.14298629760742,
        -32.667823791503906,
        -4.802052021026611
      ],
      "type": "VEC3"
    },
    {
      "bufferView": 2,
      "byteOffset": 385680,
      "componentType": 5126,
      "count": 458,
      "max": [
        1.0,
        1.0,
        1.0
      ],
      "min": [
        -1.0,
        -1.0,
        -1.0
      ],
      "type": "VEC3"
    },
    {
      "bufferView": 1,
      "byteOffset": 126728,
      "componentType": 5126,
      "count": 458,
      "max": [
        1.0,
        1.0
      ],
      "min": [
        0.0,
        0.0
      ],
      "type": "VEC2"
    },
    {
      "bufferView": 0,
      "byteOffset": 78888,
      "componentType": 5125,
      "count": 552,
      "type": "SCALAR"
    },
    {
      "bufferView": 2,
      "byteOffset": 391176,
      "componentType": 5126,
      "count": 4,
      "max": [
        -7.111813545227051,
        -1.6905725002288818,
        4.759779930114746
      ],
      "min": [
        -13.361907005310059,
        -1.6906487941741943,
        -2.3901498317718506
      ],
      "type": "VEC3"
    },
    {
      "bufferView": 2,
      "byteOffset": 391224,
      "componentType": 5126,
      "count": 4,
      "max": [
        -2.441369815642247e-06,
        1.0,
        8.53646906762151e-06
      ],
      "min": [
        -2.441369815642247e-06,
        1.0,
        8.53646906762151e-06
      ],
      "type": "VEC3"
    },
    {
      "bufferView": 1,
      "byteOffset": 130392,
      "componentType": 5126,
      "count": 4,
      "max": [
        0.9947999715805054,
        0.9950000047683716
      ],
      "min": [
        0.004999999888241291,
        0.015200018882751465
      ],
      "type": "VEC2"
    },
    {
      "bufferView": 0,
      "byteOffset": 81096,
      "componentType": 5125,
      "count": 6,
      "type": "SCALAR"
    },
    {
      "bufferView": 2,
      "byteOffset": 391272,
      "componentType": 5126,
      "count": 37965,
      "max": [
        3.793698787689209,
        15.103456497192383,
        17.122072219848633
      ],
      "min": [
        -15.833460807800293,
        -15.867904663085938,
        -5.293806552886963
      ],
      "type": "VEC3"
    },
    {
      "bufferView": 2,
      "byteOffset": 846852,
      "componentType": 5126,
      "count": 37965,
      "max": [
        0.9999449253082275,
        1.0,
        1.0
      ],
      "min": [
        -0.999953031539917,
        -0.9999417066574097,
        -1.0
      ],
      "type": "VEC3"
    },
    {
      "bufferView": 1,
      "byteOffset": 130424,
      "componentType": 5126,
      "count": 37965,
      "max": [
        1.0,
        1.0
      ],
      "min": [
        0.0,
        0.0
      ],
      "type": "VEC2"
    },
    {
      "bufferView": 0,
      "byteOffset": 81120,
      "componentType": 5125,
      "count": 38748,
      "type": "SCALAR"
    },
    {
      "bufferView": 2,
      "byteOffset": 1302432,
      "componentType": 5126,
      "count": 427,
      "max": [
        -15.308772087097168,
        33.6984748840332,
        2.6494383811950684
      ],
      "min": [
        -34.32413101196289,
        -33.6984748840332,
        -15.028554916381836
      ],
      "type": "VEC3"
    },
    {
      "bufferView": 2,
      "byteOffset": 1307556,
      "componentType": 5126,
      "count": 427,
      "max": [
        1.0,
        1.0,
        1.0
      ],
      "min": [
        -1.0,
        -1.0,
        -1.0
      ],
      "type": "VEC3"
    },
    {
      "bufferView": 1,
      "byteOffset": 434144,
      "componentType": 5126,
      "count": 427,
      "max": [
        0.9970500469207764,
        0.9950000047683716
      ],
      "min": [
        0.0022497177124023438,
        0.005200028419494629
      ],
      "type": "VEC2"
    },
    {
      "bufferView": 0,
      "byteOffset": 236112,
      "componentType": 5125,
      "count": 678,
      "type": "SCALAR"
    },
    {
      "bufferView": 2,
      "byteOffset": 1312680,
      "componentType": 5126,
      "count": 29,
      "max": [
        -1.0495249032974243,
        31.88103485107422,
        1.655313491821289
      ],
      "min": [
        -39.14298629760742,
        -31.904518127441406,
        -17.122072219848633
      ],
      "type": "VEC3"
    },
    {
      "bufferView": 2,
      "byteOffset": 1313028,
      "componentType": 5126,
      "count": 29,
      "max": [
        0.999941349029541,
        0.999941349029541,
        0.0
      ],
      "min": [
        -0.9999412894248962,
        -0.999941349029541,
        -4.906901995838098e-09
      ],
      "type": "VEC3"
    },
    {
      "bufferView": 1,
      "byteOffset": 437560,
      "componentType": 5126,
      "count": 29,
      "max": [
        0.12879446148872375,
        0.5128010511398315
      ],
      "min": [
        0.05999999865889549,
        0.5002000331878662
      ],
      "type": "VEC2"
    },
    {
      "bufferView": 0,
      "byteOffset": 238824,
      "componentType": 5125,
      "count": 30,
      "type": "SCALAR"
    },
    {
      "bufferView": 2,
      "byteOffset": 1313376,
      "componentType": 5126,
      "count": 32,
      "max": [
        0.7798131704330444,
        15.176652908325195,
        12.753225326538086
      ],
      "min": [
        -15.905244827270508,
        -1.458360195159912,
        10.822874069213867
      ],
      "type": "VEC3"
    },
    {
      "bufferView": 2,
      "byteOffset": 1313760,
      "componentType": 5126,
      "count": 32,
      "max": [
        1.0,
        1.0,
        9.881258620225708e-07
      ],
      "min": [
        -1.0,
        -1.0,
        -9.881258620225708e-07
      ],
      "type": "VEC3"
    },
    {
      "bufferView": 1,
      "byteOffset": 437792,
      "componentType": 5126,
      "count": 32,
      "max": [
        0.9998000264167786,
        1.0
      ],
      "min": [
        0.0,
        0.00019997358322143555
      ],
      "type": "VEC2"
    },
    {
      "bufferView": 0,
      "byteOffset": 238944,
      "componentType": 5125,
      "count": 48,
      "type": "SCALAR"
    },
    {
      "bufferView": 2,
      "byteOffset": 1314144,
      "componentType": 5126,
      "count": 738,
      "max": [
        -15.32178783416748,
        -0.8975743651390076,
        2.459895133972168
      ],
      "min": [
        -16.051782608032227,
        -1.6275744438171387,
        1.4898881912231445
      ],
      "type": "VEC3"
    },
    {
      "bufferView": 2,
      "byteOffset": 1323000,
      "componentType": 5126,
      "count": 738,
      "max": [
        0.9624927639961243,
        0.9891853332519531,
        0.9762665629386902
      ],
      "min": [
        -0.9962986707687378,
        -0.989216685295105,
        -0.976266622543335
      ],
      "type": "VEC3"
    },
    {
      "bufferView": 1,
      "byteOffset": 438048,
      "componentType": 5126,
      "count": 738,
      "max": [
        1.0,
        1.0
      ],
      "min": [
        0.0,
        0.0
      ],
      "type": "VEC2"
    },
    {
      "bufferView": 0,
      "byteOffset": 239136,
      "componentType": 5125,
      "count": 744,
      "type": "SCALAR"
    }
  ],
  "asset": {
    "extras": {
      "author": "Cubic Studio 3D (https://sketchfab.com/Cubic_Studio)",
      "license": "CC-BY-4.0 (http://creativecommons.org/licenses/by/4.0/)",
      "source": "https://sketchfab.com/3d-models/completely-kaaba-3d-by-cubic-studio-617b65c65ca14dbabcafdc5df4c4c6ca",
      "title": "Completely Kaaba 3D By Cubic Studio"
    },
    "generator": "Sketchfab-16.71.0",
    "version": "2.0"
  },
  "bufferViews": [
    {
      "buffer": 0,
      "byteLength": 242112,
      "name": "floatBufferViews",
      "target": 34963
    },
    {
      "buffer": 0,
      "byteLength": 443952,
      "byteOffset": 242112,
      "byteStride": 8,
      "name": "floatBufferViews",
      "target": 34962
    },
    {
      "buffer": 0,
      "byteLength": 1331856,
      "byteOffset": 686064,
      "byteStride": 12,
      "name": "floatBufferViews",
      "target": 34962
    }
  ],
  "buffers": [
    {
      "byteLength": 2017920,
      "uri": "scene.bin"
    }
  ],
  "extensionsRequired": [
    "KHR_materials_pbrSpecularGlossiness"
  ],
  "extensionsUsed": [
    "KHR_materials_pbrSpecularGlossiness"
  ],
  "images": [
    {
      "uri": "textures/Material_0_diffuse.png"
    },
    {
      "uri": "textures/Material_1_diffuse.png"
    },
    {
      "uri": "textures/Material_10_diffuse.png"
    },
    {
      "uri": "textures/Material_11_diffuse.png"
    },
    {
      "uri": "textures/Material_11_specularGlossiness.png"
    },
    {
      "uri": "textures/Material_12_diffuse.png"
    },
    {
      "uri": "textures/Material_13_diffuse.png"
    },
    {
      "uri": "textures/Material_13_specularGlossiness.png"
    },
    {
      "uri": "textures/Material_14_diffuse.png"
    },
    {
      "uri": "textures/Material_14_specularGlossiness.png"
    },
    {
      "uri": "textures/Material_15_diffuse.png"
    },
    {
      "uri": "textures/Material_15_specularGlossiness.png"
    },
    {
      "uri": "textures/Material_2_diffuse.png"
    },
    {
      "uri": "textures/Material_3_diffuse.png"
    },
    {
      "uri": "textures/Material_4_diffuse.png"
    },
    {
      "uri": "textures/Material_4_specularGlossiness.png"
    },
    {
      "uri": "textures/Material_5_diffuse.png"
    },
    {
      "uri": "textures/Material_5_specularGlossiness.png"
    },
    {
      "uri": "textures/Material_6_diffuse.png"
    },
    {
      "uri": "textures/Material_6_specularGlossiness.png"
    },
    {
      "uri": "textures/Material_7_diffuse.png"
    },
    {
      "uri": "textures/Material_7_specularGlossiness.png"
    },
    {
      "uri": "textures/Material_8_diffuse.png"
    },
    {
      "uri": "textures/Material_8_specularGlossiness.png"
    },
    {
      "uri": "textures/Material_9_diffuse.png"
    }
  ],
  "materials": [
    {
      "doubleSided": true,
      "extensions": {
        "KHR_materials_pbrSpecularGlossiness": {
          "diffuseFactor": [
            1.0,
            1.0,
            1.0,
            1.0
          ],
          "diffuseTexture": {
            "index": 0
          },
          "glossinessFactor": 0.4,
          "specularFactor": [
            1.0,
            1.0,
            1.0
          ],
          "specularGlossinessTexture": {
            "index": 0
          }
        }
      },
      "name": "Material_0"
    },
    {
      "doubleSided": true,
      "extensions": {
        "KHR_materials_pbrSpecularGlossiness": {
          "diffuseFactor": [
            1.0,
            1.0,
            1.0,
            1.0
          ],
          "diffuseTexture": {
            "index": 1
          },
          "glossinessFactor": 0.4,
          "specularFactor": [
            1.0,
            1.0,
            1.0
          ],
          "specularGlossinessTexture": {
            "index": 1
          }
        }
      },
      "name": "Material_1"
    },
    {
      "doubleSided": true,
      "extensions": {
        "KHR_materials_pbrSpecularGlossiness": {
          "diffuseFactor": [
            1.0,
            1.0,
            1.0,
            1.0
          ],
          "diffuseTexture": {
            "index": 2
          },
          "glossinessFactor": 1.0,
          "specularFactor": [
            1.0,
            1.0,
            1.0
          ],
          "specularGlossinessTexture": {
            "index": 2
          }
        }
      },
      "name": "Material_10"
    },
    {
      "alphaMode": "BLEND",
      "doubleSided": true,
      "extensions": {
        "KHR_materials_pbrSpecularGlossiness": {
          "diffuseFactor": [
            1.0,
            1.0,
            1.0,
            1.0
          ],
          "diffuseTexture": {
            "index": 3
          },
          "glossinessFactor": 1.0,
          "specularFactor": [
            1.0,
            1.0,
            1.0
          ],
          "specularGlossinessTexture": {
            "index": 4
          }
        }
      },
      "name": "Material_11"
    },
    {
      "doubleSided": true,
      "extensions": {
        "KHR_materials_pbrSpecularGlossiness": {
          "diffuseFactor": [
            1.0,
            1.0,
            1.0,
            1.0
          ],
          "diffuseTexture": {
            "index": 5
          },
          "glossinessFactor": 0.4,
          "specularFactor": [
            1.0,
            1.0,
            1.0
          ],
          "specularGlossinessTexture": {
            "index": 5
          }
        }
      },
      "name": "Material_12"
    },
    {
      "alphaMode": "BLEND",
      "doubleSided": true,
      "extensions": {
        "KHR_materials_pbrSpecularGlossiness": {
          "diffuseFactor": [
            1.0,
            1.0,
            1.0,
            1.0
          ],
          "diffuseTexture": {
            "index": 6
          },
          "glossinessFactor": 0.4,
          "specularFactor": [
            1.0,
            1.0,
            1.0
          ],
          "specularGlossinessTexture": {
            "index": 7
          }
        }
      },
      "name": "Material_13"
    },
    {
      "alphaMode": "BLEND",
      "doubleSided": true,
      "extensions": {
        "KHR_materials_pbrSpecularGlossiness": {
          "diffuseFactor": [
            1.0,
            1.0,
            1.0,
            1.0
          ],
          "diffuseTexture": {
            "index": 8
          },
          "glossinessFactor": 1.0,
          "specularFactor": [
            1.0,
            1.0,
            1.0
          ],
          "specularGlossinessTexture": {
            "index": 9
          }
        }
      },
      "name": "Material_14"
    },
    {
      "alphaMode": "BLEND",
      "doubleSided": true,
      "extensions": {
        "KHR_materials_pbrSpecularGlossiness": {
          "diffuseFactor": [
            1.0,
            1.0,
            1.0,
            1.0
          ],
          "diffuseTexture": {
            "index": 10
          },
          "glossinessFactor": 1.0,
          "specularFactor": [
            1.0,
            1.0,
            1.0
          ],
          "specularGlossinessTexture": {
            "index": 11
          }
        }
      },
      "name": "Material_15"
    },
    {
      "doubleSided": true,
      "extensions": {
        "KHR_materials_pbrSpecularGlossiness": {
          "diffuseFactor": [
            1.0,
            1.0,
            1.0,
            1.0
          ],
          "diffuseTexture": {
            "index": 12
          },
          "glossinessFactor": 0.4,
          "specularFactor": [
            1.0,
            1.0,
            1.0
          ],
          "specularGlossinessTexture": {
            "index": 12
          }
        }
      },
      "name": "Material_2"
    },
    {
      "doubleSided": true,
      "extensions": {
        "KHR_materials_pbrSpecularGlossiness": {
          "diffuseFactor": [
            1.0,
            1.0,
            1.0,
            1.0
          ],
          "diffuseTexture": {
            "index": 13
          },
          "glossinessFactor": 0.0,
          "specularFactor": [
            1.0,
            1.0,
            1.0
          ],
          "specularGlossinessTexture": {
            "index": 13
          }
        }
      },
      "name": "Material_3"
    },
    {
      "alphaMode": "BLEND",
      "doubleSided": true,
      "extensions": {
        "KHR_materials_pbrSpecularGlossiness": {
          "diffuseFactor": [
            1.0,
            1.0,
            1.0,
            1.0
          ],
          "diffuseTexture": {
            "index": 14
          },
          "glossinessFactor": 0.4,
          "specularFactor": [
            1.0,
            1.0,
            1.0
          ],
          "specularGlossinessTexture": {
            "index": 15
          }
        }
      },
      "name": "Material_4"
    },
    {
      "doubleSided": true,
      "extensions": {
        "KHR_materials_pbrSpecularGlossiness": {
          "diffuseFactor": [
            1.0,
            1.0,
            1.0,
            1.0
          ],
          "diffuseTexture": {
            "index": 16
          },
          "glossinessFactor": 1.0,
          "specularFactor": [
            1.0,
            1.0,
            1.0
          ],
          "specularGlossinessTexture": {
            "index": 17
          }
        }
      },
      "name": "Material_5"
    },
    {
      "doubleSided": true,
      "extensions": {
        "KHR_materials_pbrSpecularGlossiness": {
          "diffuseFactor": [
            1.0,
            1.0,
            1.0,
            1.0
          ],
          "diffuseTexture": {
            "index": 18
          },
          "glossinessFactor": 1.0,
          "specularFactor": [
            1.0,
            1.0,
            1.0
          ],
          "specularGlossinessTexture": {
            "index": 19
          }
        }
      },
      "name": "Material_6"
    },
    {
      "alphaMode": "BLEND",
      "doubleSided": true,
      "extensions": {
        "KHR_materials_pbrSpecularGlossiness": {
          "diffuseFactor": [
            1.0,
            1.0,
            1.0,
            0.33554126164398335
          ],
          "diffuseTexture": {
            "index": 20
          },
          "glossinessFactor": 0.4,
          "specularFactor": [
            1.0,
            1.0,
            1.0
          ],
          "specularGlossinessTexture": {
            "index": 21
          }
        }
      },
      "name": "Material_7"
    },
    {
      "alphaMode": "BLEND",
      "doubleSided": true,
      "extensions": {
        "KHR_materials_pbrSpecularGlossiness": {
          "diffuseFactor": [
            1.0,
            1.0,
            1.0,
            1.0
          ],
          "diffuseTexture": {
            "index": 22
          },
          "glossinessFactor": 0.4,
          "specularFactor": [
            1.0,
            1.0,
            1.0
          ],
          "specularGlossinessTexture": {
            "index": 23
          }
        }
      },
      "name": "Material_8"
    },
    {
      "doubleSided": true,
      "extensions": {
        "KHR_materials_pbrSpecularGlossiness": {
          "diffuseFactor": [
            1.0,
            1.0,
            1.0,
            1.0
          ],
          "diffuseTexture": {
            "index": 24
          },
          "glossinessFactor": 0.4,
          "specularFactor": [
            1.0,
            1.0,
            1.0
          ],
          "specularGlossinessTexture": {
            "index": 24
          }
        }
      },
      "name": "Material_9"
    }
  ],
  "meshes": [
    {
      "name": "Object_0",
      "primitives": [
        {
          "attributes": {
            "NORMAL": 1,
            "POSITION": 0,
            "TEXCOORD_0": 2
          },
          "indices": 3,
          "material": 0,
          "mode": 4
        }
      ]
    },
    {
      "name": "Object_1",
      "primitives": [
        {
          "attributes": {
            "NORMAL": 5,
            "POSITION": 4,
            "TEXCOORD_0": 6
          },
          "indices": 7,
          "material": 1,
          "mode": 4
        }
      ]
    },
    {
      "name": "Object_2",
      "primitives": [
        {
          "attributes": {
            "NORMAL": 9,
            "POSITION": 8,
            "TEXCOORD_0": 10
          },
          "indices": 11,
          "material": 2,
          "mode": 4
        }
      ]
    },
    {
      "name": "Object_3",
      "primitives": [
        {
          "attributes": {
            "NORMAL": 13,
            "POSITION": 12,
            "TEXCOORD_0": 14
          },
          "indices": 15,
          "material": 3,
          "mode": 4
        }
      ]
    },
    {
      "name": "Object_4",
      "primitives": [
        {
          "attributes": {
            "NORMAL": 17,
            "POSITION": 16,
            "TEXCOORD_0": 18
          },
          "indices": 19,
          "material": 4,
          "mode": 4
        }
      ]
    },
    {
      "name": "Object_5",
      "primitives": [
        {
          "attributes": {
            "NORMAL": 21,
            "POSITION": 20,
            "TEXCOORD_0": 22
          },
          "indices": 23,
          "material": 5,
          "mode": 4
        }
      ]
    },
    {
      "name": "Object_6",
      "primitives": [
        {
          "attributes": {
            "NORMAL": 25,
            "POSITION": 24,
            "TEXCOORD_0": 26
          },
          "indices": 27,
          "material": 6,
          "mode": 4
        }
      ]
    },
    {
      "name": "Object_7",
      "primitives": [
        {
          "attributes": {
            "NORMAL": 29,
            "POSITION": 28,
            "TEXCOORD_0": 30
          },
          "indices": 31,
          "material": 7,
          "mode": 4
        }
      ]
    },
    {
      "name": "Object_8",
      "primitives": [
        {
          "attributes": {
            "NORMAL": 33,
            "POSITION": 32,
            "TEXCOORD_0": 34
          },
          "indices": 35,
          "material": 8,
          "mode": 4
        }
      ]
    },
    {
      "name": "Object_9",
      "primitives": [
        {
          "attributes": {
            "NORMAL": 37,
            "POSITION": 36,
            "TEXCOORD_0": 38
          },
          "indices": 39,
          "material": 9,
          "mode": 4
        }
      ]
    },
    {
      "name": "Object_10",
      "primitives": [
        {
          "attributes": {
            "NORMAL": 41,
            "POSITION": 40,
            "TEXCOORD_0": 42
          },
          "indices": 43,
          "material": 10,
          "mode": 4
        }
      ]
    },
    {
      "name": "Object_11",
      "primitives": [
        {
          "attributes": {
            "NORMAL": 45,
            "POSITION": 44,
            "TEXCOORD_0": 46
          },
          "indices": 47,
          "material": 11,
          "mode": 4
        }
      ]
    },
    {
      "name": "Object_12",
      "primitives": [
        {
          "attributes": {
            "NORMAL": 49,
            "POSITION": 48,
            "TEXCOORD_0": 50
          },
          "indices": 51,
          "material": 12,
          "mode": 4
        }
      ]
    },
    {
      "name": "Object_13",
      "primitives": [
        {
          "attributes": {
            "NORMAL": 53,
            "POSITION": 52,
            "TEXCOORD_0": 54
          },
          "indices": 55,
          "material": 13,
          "mode": 4
        }
      ]
    },
    {
      "name": "Object_14",
      "primitives": [
        {
          "attributes": {
            "NORMAL": 57,
            "POSITION": 56,
            "TEXCOORD_0": 58
          },
          "indices": 59,
          "material": 14,
          "mode": 4
        }
      ]
    },
    {
      "name": "Object_15",
      "primitives": [
        {
          "attributes": {
            "NORMAL": 61,
            "POSITION": 60,
            "TEXCOORD_0": 62
          },
          "indices": 63,
          "material": 15,
          "mode": 4
        }
      ]
    }
  ],
  "nodes": [
    {
      "children": [
        1
      ],
      "matrix": [
        1.0,
        0.0,
        0.0,
        0.0,
        0.0,
        2.220446049250313e-16,
        -1.0,
        0.0,
        0.0,
        1.0,
        2.220446049250313e-16,
        0.0,
        0.0,
        0.0,
        0.0,
        1.0
      ],
      "name": "Sketchfab_model"
    },
    {
      "children": [
        2,
        3,
        4,
        5,
        6,
        7,
        8,
        9,
        10,
        11,
        12,
        13,
        14,
        15,
        16,
        17
      ],
      "name": "Detil_Sumur_Zam_Zam_0906_0404_selected627Obj.obj.cleaner.materialmerger.gles"
    },
    {
      "mesh": 0,
      "name": "Object_2"
    },
    {
      "mesh": 1,
      "name": "Object_3"
    },
    {
      "mesh": 2,
      "name": "Object_4"
    },
    {
      "mesh": 3,
      "name": "Object_5"
    },
    {
      "mesh": 4,
      "name": "Object_6"
    },
    {
      "mesh": 5,
      "name": "Object_7"
    },
    {
      "mesh": 6,
      "name": "Object_8"
    },
    {
      "mesh": 7,
      "name": "Object_9"
    },
    {
      "mesh": 8,
      "name": "Object_10"
    },
    {
      "mesh": 9,
      "name": "Object_11"
    },
    {
      "mesh": 10,
      "name": "Object_12"
    },
    {
      "mesh": 11,
      "name": "Object_13"
    },
    {
      "mesh": 12,
      "name": "Object_14"
    },
    {
      "mesh": 13,
      "name": "Object_15"
    },
    {
      "mesh": 14,
      "name": "Object_16"
    },
    {
      "mesh": 15,
      "name": "Object_17"
    }
  ],
  "samplers": [
    {
      "magFilter": 9729,
      "minFilter": 9987,
      "wrapS": 10497,
      "wrapT": 10497
    }
  ],
  "scene": 0,
  "scenes": [
    {
      "name": "Sketchfab_Scene",
      "nodes": [
        0
      ]
    }
  ],
  "textures": [
    {
      "sampler": 0,
      "source": 0
    },
    {
      "sampler": 0,
      "source": 1
    },
    {
      "sampler": 0,
      "source": 2
    },
    {
      "sampler": 0,
      "source": 3
    },
    {
      "sampler": 0,
      "source": 4
    },
    {
      "sampler": 0,
      "source": 5
    },
    {
      "sampler": 0,
      "source": 6
    },
    {
      "sampler": 0,
      "source": 7
    },
    {
      "sampler": 0,
      "source": 8
    },
    {
      "sampler": 0,
      "source": 9
    },
    {
      "sampler": 0,
      "source": 10
    },
    {
      "sampler": 0,
      "source": 11
    },
    {
      "sampler": 0,
      "source": 12
    },
    {
      "sampler": 0,
      "source": 13
    },
    {
      "sampler": 0,
      "source": 14
    },
    {
      "sampler": 0,
      "source": 15
    },
    {
      "sampler": 0,
      "source": 16
    },
    {
      "sampler": 0,
      "source": 17
    },
    {
      "sampler": 0,
      "source": 18
    },
    {
      "sampler": 0,
      "source": 19
    },
    {
      "sampler": 0,
      "source": 20
    },
    {
      "sampler": 0,
      "source": 21
    },
    {
      "sampler": 0,
      "source": 22
    },
    {
      "sampler": 0,
      "source": 23
    },
    {
      "sampler": 0,
      "source": 24
    }
  ]
}
